<svg xmlns="http://www.w3.org/2000/svg" xmlns:xlink="http://www.w3.org/1999/xlink" width="52" height="61" viewBox="0 0 52 61"><defs><path id="gohua" d="M172 114.855V95.877s11.82-.035 18.252 15.59c6.433 15.623 6.085 32.533 6.085 32.533s-2.19-13.178-13.52-23.045c-4.966-4.324-10.817-6.1-10.817-6.1z"/><path id="gohub" d="M223.377 114.855V95.877s-11.82-.035-18.252 15.59C198.692 127.09 199.04 144 199.04 144s2.189-13.178 13.52-23.045c4.965-4.324 10.816-6.1 10.816-6.1z"/><path id="gohuc" d="M190.252 84.355c2.44-.823 5.052-1.156 6.438-1.283l-.001-.072s.201.006.553.027c.286-.02.447-.027.447-.027v.056c1.616.113 4.88.437 7.436 1.3 3.538 1.193 6.084 2.71 6.084 2.71s-6.484 5.56-9.464 20.333c-2.98 14.774-4.056 32.534-4.056 32.534s-1.076-17.76-4.057-32.534c-2.98-14.773-9.464-20.333-9.464-20.333s2.546-1.517 6.084-2.71z"/></defs><g><g transform="translate(-172 -83)"><g><use fill="#fff" xlink:href="#gohua"/></g><g><use fill="#fff" xlink:href="#gohub"/></g><g><use fill="#9e171d" xlink:href="#gohuc"/></g></g></g></svg>